<svg width="40.000000" height="20.000000" viewBox="0 0 40 20" fill="none" xmlns="http://www.w3.org/2000/svg" xmlns:xlink="http://www.w3.org/1999/xlink">
	<defs/>
	<path id="logo" d="M14.69 8.04C15.22 8.73 15.91 9.3 16.76 9.76Q15.36 10.49 14.52 11.54C13.86 12.38 13.54 13.4 13.54 14.61Q13.54 15.88 14.03 16.9L14.03 16.9Q14.16 17.17 14.32 17.42Q14.48 17.66 14.65 17.88Q15.39 18.77 16.53 19.32C17.49 19.77 18.62 20 19.92 20C21.88 20 23.43 19.51 24.58 18.54Q25.22 18 25.63 17.31Q26.3 16.16 26.3 14.61Q26.3 13.44 25.86 12.47Q25.67 12.05 25.4 11.66C24.89 10.94 24.12 10.31 23.08 9.77C23.93 9.33 24.6 8.77 25.12 8.09C25.7 7.31 25.99 6.36 25.99 5.22Q25.99 4.28 25.68 3.45Q25.51 3 25.24 2.57C24.75 1.78 24.05 1.15 23.15 0.69C22.25 0.23 21.17 0 19.92 0C18.67 0 17.58 0.23 16.66 0.69Q15.56 1.25 14.86 2.12L14.86 2.12Q14.69 2.34 14.54 2.57C14.04 3.36 13.79 4.25 13.79 5.22C13.79 6.31 14.09 7.25 14.69 8.04ZM0 19.73L0 0.26L6.05 0.26Q8.91 0.26 10.6 1.61Q11.32 2.18 11.74 2.93Q12.3 3.93 12.3 5.25Q12.3 6.43 11.81 7.34Q11.76 7.41 11.72 7.49C11.33 8.13 10.82 8.62 10.17 8.98C9.53 9.34 8.83 9.51 8.08 9.51L8.08 9.6C8.92 9.58 9.69 9.73 10.38 10.07Q10.78 10.27 11.13 10.54Q11.67 10.97 12.07 11.6C12.5 12.27 12.71 13.1 12.71 14.1C12.71 15.24 12.45 16.23 11.93 17.08Q11.72 17.41 11.47 17.7Q10.77 18.52 9.7 19.04Q8.26 19.73 6.28 19.73L0 19.73ZM29.49 18.68Q31.11 20 33.79 20C35.73 20 37.25 19.49 38.35 18.47C39.45 17.44 40 16.04 40 14.26L40 12.37C40 10.66 39.57 9.33 38.72 8.38Q38.41 8.03 38.04 7.77Q36.89 6.95 35.16 6.95Q33.59 6.95 32.67 7.66C32.24 8 31.96 8.42 31.83 8.93L31.78 8.93L31.83 3.86L39.3 3.86L39.3 0.26L28.21 0.26L28.07 10.93L31.81 10.93C32 10.66 32.26 10.46 32.59 10.33C32.93 10.19 33.33 10.13 33.79 10.13C34.56 10.13 35.15 10.32 35.54 10.7C35.93 11.09 36.13 11.64 36.13 12.37L36.13 14.26C36.13 14.97 35.93 15.53 35.53 15.93C35.13 16.33 34.55 16.52 33.79 16.52C33.09 16.52 32.54 16.36 32.14 16.04C31.75 15.71 31.53 15.25 31.5 14.66L27.64 14.66C27.67 16.3 28.24 17.6 29.34 18.56Q29.41 18.62 29.49 18.68ZM19.38 8.05L19.94 8.31L20.46 8.07C20.99 7.83 21.41 7.48 21.72 7.03Q21.91 6.75 22.02 6.44Q22.18 5.99 22.18 5.49Q22.18 4.8 21.87 4.3Q21.75 4.11 21.58 3.94C21.18 3.55 20.62 3.35 19.92 3.35Q19.02 3.35 18.42 3.78Q18.32 3.85 18.23 3.94Q18.03 4.13 17.89 4.36Q17.6 4.84 17.6 5.49C17.6 6.04 17.76 6.54 18.09 7C18.42 7.45 18.85 7.8 19.38 8.05ZM3.73 8.1L6 8.1Q6.99 8.1 7.61 7.62L7.61 7.62Q7.69 7.55 7.77 7.48Q7.92 7.33 8.03 7.16Q8.41 6.6 8.41 5.78Q8.41 4.89 7.98 4.33Q7.89 4.2 7.77 4.09Q7.72 4.05 7.67 4L7.67 4Q7.04 3.49 6 3.49L3.73 3.49L3.73 8.1ZM21.5 16.2Q21.65 16.1 21.78 15.97Q22.09 15.68 22.27 15.32Q22.49 14.86 22.49 14.29C22.49 13.76 22.32 13.23 21.97 12.72C21.64 12.2 21.19 11.82 20.64 11.57L19.92 11.24L19.2 11.57C18.65 11.82 18.2 12.2 17.86 12.7C17.52 13.21 17.34 13.73 17.34 14.26C17.34 14.95 17.58 15.52 18.05 15.97Q18.18 16.09 18.33 16.2L18.33 16.2Q18.97 16.64 19.92 16.64Q20.86 16.64 21.5 16.2ZM3.73 16.5L6.12 16.5Q7.25 16.5 7.94 15.95Q8.02 15.88 8.1 15.81Q8.24 15.67 8.35 15.52L8.35 15.52Q8.82 14.88 8.82 13.89Q8.82 12.91 8.36 12.26Q8.25 12.1 8.1 11.95Q8 11.86 7.89 11.77L7.89 11.77Q7.21 11.25 6.12 11.25L3.73 11.25L3.73 16.5Z" fill="#00AAFF" fill-opacity="1.000000" fill-rule="evenodd"/>
</svg>
